<?xml version="1.0" encoding="UTF-8"?>
<svg id="Capa_2" data-name="Capa 2" xmlns="http://www.w3.org/2000/svg" viewBox="0 0 345.26 252.61">
  <defs>
    <style>
      .cls-1 {
        fill: #d90f16;
      }

      .cls-2 {
        fill: #1e3d87;
      }

      .cls-3 {
        fill: #1d1d1b;
      }
    </style>
  </defs>
  <g id="Layer_1" data-name="Layer 1">
    <g>
      <g>
        <path class="cls-3" d="m0,118.2V10.99c0-3.66,1.72-5.49,5.16-5.49h25.64c10.76,0,18.92,2.39,24.47,7.16,5.55,4.77,8.32,12.54,8.32,23.31,0,13.32-5.16,22.7-15.48,28.13v.67c2.33,1.22,4.38,3.44,6.16,6.66,1.77,3.22,3.55,7.55,5.33,12.98l10.32,32.46c.11.45.22.86.33,1.25.11.39.17.75.17,1.08,0,2.11-2.55,3.16-7.66,3.16h-3.66c-1.89,0-3.5-.28-4.83-.83-1.33-.55-2.16-1.33-2.5-2.33l-9.66-32.46c-1.67-5.22-3.58-8.77-5.74-10.65-2.16-1.89-5.36-2.83-9.57-2.83h-8.66v44.95c0,2.78-2.5,4.16-7.49,4.16h-3.16c-4.99,0-7.49-1.39-7.49-4.16Zm32.63-60.93c3.55,0,6.58-1.8,9.07-5.41,2.5-3.6,3.75-8.07,3.75-13.4,0-5.99-1.22-10.43-3.66-13.32-2.44-2.88-5.77-4.33-9.99-4.33h-13.82v36.46h14.65Z"/>
        <path class="cls-3" d="m86.4,118.2V38.79c0-2.77,2.55-4.16,7.66-4.16h1.67c5.1,0,7.66,1.39,7.66,4.16v79.41c0,2.78-2.55,4.16-7.66,4.16h-1.67c-5.11,0-7.66-1.39-7.66-4.16Zm3.75-93.47c-.61-.28-.92-.8-.92-1.58,0-.67.44-1.97,1.33-3.91.89-1.94,2.16-4.58,3.83-7.91l3.33-6.83c1.55-3,5.05-4.49,10.49-4.49,2.66,0,4.58.17,5.74.5s1.75.94,1.75,1.83c0,.67-.47,1.72-1.42,3.16-.94,1.44-2.53,3.61-4.74,6.49-.78,1-1.75,2.28-2.91,3.83-1.17,1.56-2.64,3.55-4.41,5.99-.78,1.11-1.86,1.94-3.25,2.5-1.39.56-3.3.83-5.74.83-1.44,0-2.47-.14-3.08-.42Z"/>
        <path class="cls-3" d="m122.77,118.28c-1.06-2.5-1.58-4.74-1.58-6.74,0-.67.11-1.33.33-2,0,0-.16-12.68,29.04-51.11,23.65-31.13,20.07-37.62,20.07-37.62h-41.78c-1.22,0-2.11-.53-2.66-1.58-.56-1.05-.83-2.69-.83-4.91v-2.33c0-2.33.28-4,.83-4.99.55-1,1.44-1.5,2.66-1.5h60.76c1,0,2,1.28,3,3.83,1,2.55,1.5,4.83,1.5,6.83,0,.89-.06,1.5-.17,1.83,0,0-5.15,22.38-28.86,51.95-22.66,28.24-22.08,36.78-22.08,36.78h47.45c2.44,0,3.66,2.16,3.66,6.49v2.33c0,2.33-.31,4-.92,4.99-.61,1-1.53,1.5-2.75,1.5h-64.59c-1,0-2.03-1.25-3.08-3.75Z"/>
        <path class="cls-3" d="m213.58,120.69c-.78-.89-1.17-2.27-1.17-4.16V10.99c0-1.89.39-3.27,1.17-4.16.78-.89,2.05-1.33,3.83-1.33h48.28c2.44,0,3.66,2,3.66,5.99v3.33c0,4-1.22,5.99-3.66,5.99h-35.13v33.96h31.46c2.44,0,3.66,2,3.66,5.99v3.33c0,4-1.22,5.99-3.66,5.99h-31.46v36.62h35.13c1.33,0,2.27.47,2.83,1.42.55.94.83,2.47.83,4.58v3.33c0,2.11-.28,3.64-.83,4.58-.56.94-1.5,1.42-2.83,1.42h-48.28c-1.78,0-3.05-.44-3.83-1.33Z"/>
        <path class="cls-3" d="m295.32,120.94c-4.66-1.39-8.6-3.36-11.82-5.91-.67-.67-1.17-1.3-1.5-1.91-.33-.61-.5-1.42-.5-2.41,0-2.33.5-4.74,1.5-7.24s2.16-3.75,3.5-3.75c.55,0,1.19.2,1.92.58.72.39,1.3.69,1.75.92,5.55,4.11,12.1,6.16,19.64,6.16,5.1,0,9.29-1.44,12.57-4.33,3.27-2.88,4.91-6.99,4.91-12.32,0-4.88-1.39-8.71-4.16-11.49-2.78-2.77-6.94-5.6-12.49-8.49-5.99-3.11-10.82-6.02-14.48-8.74-3.66-2.72-6.63-6.16-8.91-10.32-2.28-4.16-3.41-9.29-3.41-15.4,0-10.1,3.19-18.03,9.57-23.81,6.38-5.77,14.67-8.66,24.89-8.66,3.88,0,7.66.47,11.32,1.42,3.66.94,6.83,2.25,9.49,3.91,1.11.67,1.67,1.67,1.67,3,0,2-.56,4.39-1.67,7.16-1.11,2.78-2.28,4.16-3.5,4.16-.44,0-1.44-.33-3-1-4.44-2-9.16-3-14.15-3s-9.05,1.36-12.15,4.08c-3.11,2.72-4.66,6.47-4.66,11.24,0,3.44.75,6.35,2.25,8.74,1.5,2.39,3.47,4.41,5.91,6.08,2.44,1.67,5.99,3.77,10.65,6.33,5.44,2.89,9.88,5.66,13.32,8.32,3.44,2.66,6.21,6.02,8.32,10.07,2.11,4.05,3.16,9.07,3.16,15.07,0,10.21-3.19,18.37-9.57,24.47-6.38,6.1-14.9,9.16-25.55,9.16-5.22,0-10.16-.69-14.82-2.08Z"/>
      </g>
      <g>
        <path class="cls-1" d="m133.88,223.96l-30.83-31.94v-56.63c0-1.67-1.35-3.02-3.02-3.02s-3.02,1.35-3.02,3.02v114.2c0,1.67,1.35,3.02,3.02,3.02s3.02-1.35,3.02-3.02v-24.28l13.26,12.99c.59.58,1.35.86,2.12.86s1.57-.3,2.16-.91c1.17-1.19,1.15-3.11-.04-4.28l-17.49-17.13v-16.1l26.48,27.43c.59.62,1.38.92,2.18.92s1.51-.28,2.1-.85c1.2-1.16,1.24-3.08.08-4.28Z"/>
        <path class="cls-1" d="m131.7,206.7c.74,0,1.49-.27,2.07-.82,1.22-1.14,1.28-3.06.13-4.28l-19.86-21.13v-33.71c0-1.67-1.35-3.02-3.02-3.02s-3.02,1.35-3.02,3.02v36.1l21.5,22.88c.59.63,1.4.95,2.2.95Z"/>
        <path class="cls-2" d="m89.23,132.36c-1.67,0-3.02,1.35-3.02,3.02v56.63l-30.83,31.94c-1.16,1.2-1.13,3.12.08,4.28.59.57,1.34.85,2.1.85s1.58-.31,2.18-.92l26.48-27.43v16.1l-17.49,17.13c-1.19,1.17-1.21,3.08-.04,4.28.59.6,1.38.91,2.16.91s1.53-.29,2.12-.86l13.26-12.99v24.28c0,1.67,1.35,3.02,3.02,3.02s3.02-1.35,3.02-3.02v-114.2c0-1.67-1.35-3.02-3.02-3.02Z"/>
        <path class="cls-2" d="m57.55,206.7c.81,0,1.61-.32,2.2-.95l21.5-22.88v-36.1c0-1.67-1.35-3.02-3.02-3.02s-3.02,1.35-3.02,3.02v33.71l-19.86,21.13c-1.14,1.22-1.08,3.13.13,4.28.58.55,1.33.82,2.07.82Z"/>
      </g>
      <g>
        <path class="cls-3" d="m147.38,169.95c-.26-.27-.39-.71-.39-1.32v-26.85c0-.61.13-1.05.39-1.32s.66-.41,1.21-.41h12.78c.43,0,.75.17.95.52.2.35.3.89.3,1.65v1.34c0,.75-.1,1.3-.3,1.65-.2.35-.52.52-.95.52h-7.62v6.28h6.76c.43,0,.75.17.95.52.2.35.3.9.3,1.65v1.34c0,.75-.1,1.3-.3,1.65-.2.35-.52.52-.95.52h-6.76v7.02h7.67c.43,0,.74.17.93.52.19.35.28.9.28,1.65v1.34c0,.75-.09,1.3-.28,1.65-.19.35-.5.52-.93.52h-12.82c-.55,0-.95-.14-1.21-.41Z"/>
        <path class="cls-3" d="m179.65,169.54l-6.58-27.85c-.12-.4-.17-.66-.17-.78,0-.63.84-.95,2.51-.95h1.65c1.44,0,2.24.42,2.38,1.26l3.68,19.58.39,2.99h.17l.39-2.99,3.9-19.58c.14-.84.94-1.26,2.38-1.26h1.6c1.65,0,2.47.32,2.47.95,0,.2-.04.46-.13.78l-6.58,27.85c-.14.61-.91.91-2.3.91h-3.46c-1.39,0-2.15-.3-2.3-.91Z"/>
        <path class="cls-3" d="m205.98,169.95c-.26-.27-.39-.71-.39-1.32v-26.85c0-.61.13-1.05.39-1.32s.66-.41,1.21-.41h12.78c.43,0,.75.17.95.52.2.35.3.89.3,1.65v1.34c0,.75-.1,1.3-.3,1.65-.2.35-.52.52-.95.52h-7.62v6.28h6.76c.43,0,.75.17.95.52.2.35.3.9.3,1.65v1.34c0,.75-.1,1.3-.3,1.65-.2.35-.52.52-.95.52h-6.76v7.02h7.67c.43,0,.74.17.93.52.19.35.28.9.28,1.65v1.34c0,.75-.09,1.3-.28,1.65-.19.35-.5.52-.93.52h-12.82c-.55,0-.95-.14-1.21-.41Z"/>
        <path class="cls-3" d="m233.57,169.06v-27.72c0-.92.84-1.39,2.51-1.39h1.13c.58,0,1.04.08,1.39.24.35.16.63.48.87.97l7.8,14.12c.4.75.89,1.88,1.47,3.38l.17-.09c-.23-1.5-.35-2.64-.35-3.42v-13.82c0-.92.84-1.39,2.51-1.39h1.04c1.67,0,2.51.46,2.51,1.39v27.72c0,.92-.84,1.39-2.51,1.39h-.82c-.58,0-1.05-.08-1.43-.24-.38-.16-.68-.48-.91-.97l-8.27-14.73c-.26-.43-.65-1.36-1.17-2.77l-.22.13c.23,1.33.35,2.31.35,2.95v14.25c0,.92-.84,1.39-2.51,1.39h-1.04c-1.67,0-2.51-.46-2.51-1.39Z"/>
        <path class="cls-3" d="m271.69,169.06v-23.35h-4.81c-.43,0-.75-.17-.95-.52s-.3-.89-.3-1.65v-1.34c0-.75.1-1.3.3-1.65.2-.35.52-.52.95-.52h16.46c.46,0,.79.17,1,.52.2.35.3.89.3,1.65v1.34c0,.75-.1,1.3-.3,1.65s-.53.52-1,.52h-4.85v23.35c0,.92-.84,1.39-2.51,1.39h-1.78c-1.68,0-2.51-.46-2.51-1.39Z"/>
        <path class="cls-3" d="m294.13,155.21c0-10.34,3.78-15.51,11.35-15.51,3.7,0,6.5,1.26,8.42,3.77s2.88,6.42,2.88,11.74-.96,9.23-2.88,11.74c-1.92,2.51-4.73,3.77-8.42,3.77-7.57,0-11.35-5.17-11.35-15.51Zm13.9,8.97c.63-.58,1.11-1.58,1.43-3.01s.48-3.41.48-5.96-.16-4.48-.48-5.91c-.32-1.43-.79-2.43-1.43-3.01-.64-.58-1.47-.87-2.51-.87s-1.88.29-2.53.87c-.65.58-1.14,1.58-1.47,3.01-.33,1.43-.5,3.4-.5,5.91s.17,4.49.5,5.93c.33,1.44.82,2.45,1.47,3.03.65.58,1.49.87,2.53.87s1.88-.29,2.51-.87Z"/>
        <path class="cls-3" d="m331.55,170.08c-1.39-.42-2.4-.99-3.03-1.71-.38-.52-.56-1.02-.56-1.52,0-.81.22-1.63.65-2.47.43-.84.91-1.26,1.43-1.26.23,0,.6.14,1.1.43.5.29.87.49,1.1.61,1.13.58,2.12.87,2.99.87s1.67-.22,2.34-.65c.66-.43,1-1.17,1-2.21,0-.78-.17-1.44-.52-1.99-.35-.55-.77-1-1.28-1.34-.51-.35-1.23-.78-2.19-1.3-2.19-1.24-3.78-2.56-4.76-3.94-.98-1.39-1.47-3.25-1.47-5.59,0-2.6.83-4.63,2.49-6.11,1.66-1.47,3.86-2.21,6.6-2.21.98,0,2.02.15,3.12.45,1.1.3,1.95.67,2.56,1.1.52.38.78.88.78,1.52,0,.75-.17,1.55-.5,2.38-.33.84-.74,1.26-1.23,1.26-.23,0-.65-.12-1.26-.35-1.13-.43-2.07-.65-2.82-.65-1.16,0-1.95.25-2.38.74-.43.49-.65,1.05-.65,1.69,0,1.07.28,1.88.84,2.45s1.45,1.18,2.66,1.84l1,.56c1.99,1.16,3.43,2.4,4.31,3.72.88,1.33,1.32,3.08,1.32,5.24,0,1.62-.35,3.11-1.04,4.48s-1.75,2.48-3.16,3.31-3.16,1.26-5.24,1.26c-1.42,0-2.82-.21-4.2-.63Z"/>
        <path class="cls-3" d="m147.66,203.91c-1.32-1.8-1.98-4.65-1.98-8.54s.69-6.54,2.08-8.37c1.38-1.83,3.52-2.75,6.42-2.75.98,0,1.88.11,2.72.34.65.19.97.64.97,1.34,0,.79-.14,1.5-.42,2.12-.28.62-.63.86-1.05.72-.67-.21-1.33-.31-2-.31-1.25,0-2.18.57-2.79,1.72s-.92,2.88-.92,5.21.31,4.07.92,5.23c.61,1.16,1.6,1.73,2.95,1.73.4,0,.73-.03,1-.08.27-.05.62-.14,1.06-.27.06-.02.16-.03.28-.03.42,0,.73.26.94.78s.31,1.21.31,2.06c0,.31-.06.58-.19.8-.12.22-.36.39-.72.51-.35.12-.82.23-1.41.33s-1.19.14-1.81.14c-2.91,0-5.03-.9-6.35-2.7Z"/>
        <path class="cls-3" d="m165.38,195.44c0-7.45,2.73-11.18,8.18-11.18,2.66,0,4.69.91,6.07,2.72,1.38,1.81,2.08,4.63,2.08,8.46s-.69,6.65-2.08,8.46c-1.38,1.81-3.41,2.72-6.07,2.72-5.46,0-8.18-3.73-8.18-11.18Zm10.02,6.46c.46-.42.8-1.14,1.03-2.17s.34-2.46.34-4.29-.11-3.23-.34-4.26-.57-1.75-1.03-2.17-1.06-.62-1.81-.62-1.36.21-1.83.62-.82,1.14-1.06,2.17-.36,2.45-.36,4.26.12,3.24.36,4.28c.24,1.04.59,1.77,1.06,2.19.47.42,1.08.62,1.83.62s1.35-.21,1.81-.62Z"/>
        <path class="cls-3" d="m190.61,205.43v-19.98c0-.67.6-1,1.81-1h.81c.42,0,.75.06,1,.17.25.12.46.35.62.7l5.62,10.18c.29.54.64,1.35,1.06,2.44l.12-.06c-.17-1.08-.25-1.91-.25-2.47v-9.96c0-.67.6-1,1.81-1h.75c1.21,0,1.81.33,1.81,1v19.98c0,.67-.6,1-1.81,1h-.59c-.42,0-.76-.06-1.03-.17s-.49-.35-.66-.7l-5.96-10.62c-.19-.31-.47-.98-.84-2l-.16.09c.17.96.25,1.67.25,2.12v10.27c0,.67-.6,1-1.81,1h-.75c-1.21,0-1.81-.33-1.81-1Z"/>
        <path class="cls-3" d="m225.59,205.43v-19.67c0-.44.1-.75.3-.95.2-.2.52-.3.95-.3h5.4c1.64,0,3.1.47,4.36,1.42,1.26.95,1.89,2.75,1.89,5.42,0,1.83-.36,3.25-1.09,4.26s-1.54,1.69-2.44,2.04c-.9.35-1.7.53-2.4.53h-2.15v7.24c0,.67-.62,1-1.87,1h-1.06c-1.25,0-1.87-.33-1.87-1Zm6.43-11.27c.48,0,.89-.21,1.25-.62.35-.42.53-1.14.53-2.19s-.18-1.73-.53-2.14c-.35-.41-.77-.61-1.25-.61h-1.66v5.56h1.66Z"/>
        <path class="cls-3" d="m244.54,205.74c0-.17.03-.35.09-.56l4.81-19.86c.15-.58.78-.88,1.91-.88h2.03c1.14,0,1.79.29,1.94.88l4.81,19.86c.04.29.06.48.06.56,0,.46-.45.69-1.34.69h-1.66c-1,0-1.55-.22-1.66-.66l-.81-3.81h-4.75l-.84,3.81c-.08.44-.57.66-1.47.66h-1.62c-1,0-1.5-.23-1.5-.69Zm9.65-7.59l-1.41-6.62c-.15-.75-.27-1.54-.37-2.37h-.16c-.1.83-.23,1.62-.38,2.37l-1.37,6.62h3.68Z"/>
        <path class="cls-3" d="m269.74,206.16c-1-.3-1.73-.71-2.19-1.23-.27-.38-.41-.74-.41-1.09,0-.58.16-1.18.47-1.78.31-.6.66-.91,1.03-.91.17,0,.43.1.8.31.36.21.63.35.8.44.81.42,1.53.62,2.15.62s1.21-.16,1.69-.47c.48-.31.72-.84.72-1.59,0-.56-.12-1.04-.37-1.44-.25-.4-.56-.72-.92-.97-.36-.25-.89-.56-1.58-.94-1.58-.89-2.73-1.84-3.44-2.84-.71-1-1.06-2.34-1.06-4.03,0-1.87.6-3.34,1.8-4.4,1.2-1.06,2.78-1.59,4.76-1.59.71,0,1.46.11,2.25.33s1.41.48,1.84.8c.37.27.56.63.56,1.09,0,.54-.12,1.11-.36,1.72-.24.6-.54.91-.89.91-.17,0-.47-.08-.91-.25-.81-.31-1.49-.47-2.03-.47-.83,0-1.41.18-1.72.53-.31.35-.47.76-.47,1.22,0,.77.2,1.36.61,1.76s1.05.85,1.92,1.33l.72.41c1.44.83,2.47,1.73,3.11,2.69.63.96.95,2.22.95,3.78,0,1.17-.25,2.24-.75,3.23-.5.99-1.26,1.79-2.28,2.39-1.02.6-2.28.91-3.78.91-1.02,0-2.03-.15-3.03-.45Z"/>
        <path class="cls-3" d="m287.69,205.43v-19.98c0-.69.6-1.03,1.81-1.03h1.31c1.19,0,1.78.34,1.78,1.03v19.98c0,.69-.59,1.03-1.78,1.03h-1.31c-1.21,0-1.81-.34-1.81-1.03Z"/>
        <path class="cls-3" d="m301.53,195.44c0-7.45,2.73-11.18,8.18-11.18,2.66,0,4.69.91,6.07,2.72,1.38,1.81,2.08,4.63,2.08,8.46s-.69,6.65-2.08,8.46c-1.38,1.81-3.41,2.72-6.07,2.72-5.46,0-8.18-3.73-8.18-11.18Zm10.02,6.46c.46-.42.8-1.14,1.03-2.17s.34-2.46.34-4.29-.11-3.23-.34-4.26-.57-1.75-1.03-2.17-1.06-.62-1.81-.62-1.36.21-1.83.62-.82,1.14-1.06,2.17-.36,2.45-.36,4.26.12,3.24.36,4.28c.24,1.04.59,1.77,1.06,2.19.47.42,1.08.62,1.83.62s1.35-.21,1.81-.62Zm-3.22-19.13c-.12-.07-.19-.19-.19-.36,0-.12.07-.33.2-.62.13-.29.33-.67.58-1.12l.97-1.9c.29-.56,1.11-.84,2.47-.84.58,0,1.01.03,1.28.09.27.06.41.18.41.34,0,.12-.07.29-.22.5s-.41.54-.78,1c-.19.25-.42.55-.7.91-.28.35-.63.8-1.05,1.34-.19.25-.44.44-.75.58s-.81.2-1.5.2c-.35,0-.59-.04-.72-.11Z"/>
        <path class="cls-3" d="m326.76,205.43v-19.98c0-.67.6-1,1.81-1h.81c.42,0,.75.06,1,.17.25.12.46.35.62.7l5.62,10.18c.29.54.64,1.35,1.06,2.44l.12-.06c-.17-1.08-.25-1.91-.25-2.47v-9.96c0-.67.6-1,1.81-1h.75c1.21,0,1.81.33,1.81,1v19.98c0,.67-.6,1-1.81,1h-.59c-.42,0-.76-.06-1.03-.17s-.49-.35-.66-.7l-5.96-10.62c-.19-.31-.47-.98-.84-2l-.16.09c.17.96.25,1.67.25,2.12v10.27c0,.67-.6,1-1.81,1h-.75c-1.21,0-1.81-.33-1.81-1Z"/>
      </g>
    </g>
  </g>
</svg>